<svg width="80" height="75" viewBox="0 0 80 75" fill="none" xmlns="http://www.w3.org/2000/svg">
<path d="M20.8054 0.927554C10.6682 6.54503 3.47665 16.8056 1.44037 28.2504C0.585559 33.0546 0.700808 37.9973 1.57209 42.7889C1.71236 42.9348 3.3456 41.8541 3.65381 41.7914C4.24717 41.6699 5.10067 41.8165 5.69931 41.6171L5.8567 44.3133C5.80665 44.5694 5.23831 44.6388 5.00847 44.751L5.15533 45.6785L8.15509 44.203C8.70894 45.2534 9.49527 46.3216 9.34841 47.5799L6.93741 49.0725L6.94926 50.2338L6.47905 50.4437L7.06253 51.8459L8.22029 51.1567C8.34805 51.3561 8.6556 51.4234 8.77809 51.5343C9.30626 52.0097 10.4015 53.944 10.6649 54.6405C10.7755 54.9323 11.1739 56.0929 11.035 56.3022C10.9882 56.3728 10.7913 56.3451 10.8374 56.491L11.0732 56.8877L11.8918 56.2229L12.2803 56.594L12.7071 56.3787C12.7156 56.4461 12.7387 56.5214 12.7855 56.5709C13.8754 57.7189 14.906 58.9237 16.0236 60.0467C15.7477 60.5088 16.0704 60.5168 16.127 60.7274C16.1797 60.9241 15.8247 61.4179 15.6779 61.5816L15.9479 62.0827L14.7467 63.9794L18.1336 66.5198L18.2384 66.5284C18.5795 65.445 19.0747 66.4287 19.7214 66.5739L20.6191 64.8086L22.9445 65.8206L23.387 64.8951L26.6034 66.3052L26.7207 66.4755L26.2952 67.5477L29.4563 68.6383L28.6838 72.066L29.2996 72.2303L30.0049 69.3427L30.9006 69.5593C31.0771 69.0338 31.4801 69.2153 31.949 69.1836L31.9477 69.4972L32.2539 69.5058C32.1881 69.9171 32.8664 69.8095 33.0705 69.956C33.1594 70.0201 33.0916 70.1976 33.1509 70.2802C33.2345 70.3977 33.5197 70.3086 33.5789 70.4828L33.1166 73.1645L33.5058 73.245L33.741 71.7623L34.9441 71.8448L34.987 71.6052L35.9221 71.7629L35.8589 71.9478L35.9728 72.062L37.1734 72.1082L37.2471 73.0113C37.2992 73.0833 38.1764 71.6705 38.2449 71.553C39.562 69.2873 40.2989 64.2144 40.1277 61.5731C40.1047 61.2225 39.9058 59.5529 39.8024 59.3225C39.6687 59.0254 38.8619 59.2426 39.2716 58.801C39.2373 58.758 38.5564 58.6537 38.7263 58.4887L39.1155 58.4081L39.0384 58.2556L40.129 57.9401L40.0829 57.6278C40.7896 57.3472 40.5762 56.9518 40.5959 56.3009L40.7072 57.2423C40.7757 57.4832 41.0069 57.4905 41.2084 57.5592L41.2209 57.9381L42.3089 58.1764L42.2338 58.3263L42.6204 58.527C42.112 58.488 42.2305 58.9409 42.1587 58.9944C41.9539 59.1469 41.6009 58.999 41.487 59.3416C41.3586 59.7259 41.2578 60.8799 41.2196 61.338C41.0069 63.9094 41.5864 69.7573 42.7955 72.0164C42.9325 72.2726 43.2025 72.5235 43.3612 72.777L43.244 68.0527L43.3165 67.8916L43.7116 67.858L43.7182 67.5536L44.3774 67.4077L44.492 67.7022L45.2243 67.5556L45.3356 67.6744L45.8612 72.4693L46.1318 72.431L46.2102 72.1148L45.8921 69.1856L49.5162 68.4039L50.3328 72.4654L51.7316 72.0699L50.7279 67.3952C51.8337 67.1516 52.8564 66.6188 53.9905 66.5336L54.9737 69.4133L58.0881 68.0956L53.9207 58.4154L55.2009 57.7084L56.3692 59.8137L57.7344 58.834L60.1527 62.8591L62.0948 62.1567L60.7645 60.0177L63.4929 57.5809L66.9629 61.375L67.8572 60.4006L63.8972 56.011C63.8077 55.6889 64.3227 55.4598 64.4162 55.1508L64.3708 54.0536L65.9915 52.7445L66.2957 52.8316L71.2389 56.8448L72.9031 54.2312L69.3502 51.6037L70.1786 49.6858C70.3525 49.2772 70.7397 49.8159 71.0157 49.8892C71.1105 49.8819 71.3522 49.2666 71.4253 49.1385C71.4622 49.0738 71.4009 49.0045 71.5511 49.0461L75.1831 51.1145L75.8034 49.6674L71.9976 47.8208L73.3187 43.9693L77.4024 45.602C77.5934 45.5894 77.9352 43.2854 78.0801 43.0042C78.1499 42.8688 78.3027 42.8675 78.3593 42.7374C78.788 41.7458 79.1087 37.5913 79.1575 36.3535C79.7245 21.8718 72.0028 7.78155 59.3663 0.819944L59.3031 0.680646L59.5652 0C70.745 6.03405 78.383 17.7628 79.7686 30.4251C81.3163 44.5727 75.0138 59.3179 63.4448 67.5312C46.467 79.5834 23.358 76.7618 9.71062 61.1439C-3.11228 46.4655 -3.16364 24.667 9.12911 9.64326C11.6955 6.50674 14.9877 3.55309 18.403 1.37053C18.7013 1.17974 20.2753 0.18155 20.4748 0.163065C20.6744 0.14458 20.7989 0.757227 20.8054 0.927554ZM40.4405 59.1865C40.3213 59.1852 40.021 59.1469 39.9934 59.3L40.2851 61.2166C40.3635 61.2397 40.4399 60.8845 40.4399 60.8653V59.1865H40.4405ZM40.6743 59.1865V60.4752C40.6743 60.5286 40.8008 61.4007 40.9852 61.2172C41.076 60.5953 41.2558 59.9292 41.2986 59.304C41.3151 59.0637 40.8047 59.2367 40.6743 59.1872V59.1865ZM39.9736 66.7607C40.1409 66.7528 40.4438 66.8274 40.5077 66.6333L40.4399 64.2626C40.2831 64.293 40.3128 64.4277 40.2851 64.5366C40.1106 65.2271 40.1264 66.0563 39.9736 66.7614V66.7607ZM41.2196 67.7754C41.1827 67.5034 41.3276 67.1304 41.103 66.9185C40.9588 66.9185 40.8455 67.8276 41.2196 67.7754ZM40.7527 66.9951L39.9038 67.0037L39.5831 68.9077C39.859 68.9506 40.588 69.0377 40.7632 68.8331C40.8422 68.7406 40.7527 68.6997 40.7527 68.6746V66.9958V66.9951ZM41.2973 68.5571C41.4218 67.5893 40.7961 67.648 41.0662 68.5564H41.2973V68.5571ZM39.0398 71.2902L40.7573 70.9436L40.7968 69.6457C40.6183 69.6365 40.1745 69.453 40.0888 69.447C39.9703 69.4391 39.5765 69.7184 39.3598 69.6603L39.0398 71.2902ZM41.375 69.6497H41.1419V70.4307L41.3619 70.3006L41.375 69.6497Z" fill="#D23599"/>
<path d="M16.632 34.2355L16.5 33.106H16.6166L16.7875 33.6438C17.0355 34.1126 17.447 34.343 18.0209 34.343C18.781 34.343 19.2777 33.8822 19.2777 33.2441C19.2777 32.6061 18.8588 32.2834 17.982 31.9992C17.315 31.7761 16.7252 31.4613 16.7252 30.7389C16.7252 29.978 17.315 29.4402 18.1683 29.4402C18.533 29.4402 18.8279 29.5172 19.0142 29.6015L19.3789 29.5093L19.464 30.7083H19.3474L18.9285 29.7861C18.7422 29.6632 18.4707 29.563 18.1369 29.563C17.4699 29.563 17.0664 29.978 17.0664 30.5006C17.0664 31.1001 17.5476 31.3306 18.261 31.5842C18.9902 31.8378 19.6498 32.1605 19.6498 33.0058C19.6498 33.851 18.9285 34.4659 17.9895 34.4659C17.5317 34.4659 16.9961 34.3736 16.632 34.2355Z" fill="#805C3C"/>
<path d="M22.0555 34.2501L22.5287 34.2116C22.7305 34.1963 22.8002 34.1657 22.8002 34.1193V29.67H22.2961C21.5822 29.7006 21.365 30.008 21.1479 30.4383L21.0472 30.7842H20.9307L21.2176 29.5545H24.9418L25.1201 30.7916H25.0115L24.9418 30.4383C24.6937 29.8466 24.5074 29.7006 23.7627 29.67H23.2814V34.1352C23.2814 34.181 23.3123 34.1969 23.6072 34.2195L24.0182 34.2501L24.0416 34.3577H22.0321L22.0555 34.2501Z" fill="#805C3C"/>
<path d="M27.5406 34.2501L28.0138 34.2116C28.2076 34.1963 28.2853 34.1657 28.2853 34.1193V32.229L27.0131 30.1003C26.8581 29.8234 26.7804 29.7006 26.501 29.6853L26.206 29.6621L26.1826 29.5545H28.0213L27.9979 29.6621L27.6332 29.6774C27.3772 29.6853 27.3463 29.7544 27.5012 30.0154L28.6729 32.0286H28.6963L29.6508 30.3381C29.9302 29.8155 29.8988 29.7232 29.449 29.6774L29.1307 29.6621L29.1072 29.5545H30.8065L30.783 29.6621L30.535 29.6774C30.1858 29.7006 30.1394 29.7079 29.8057 30.3307L28.758 32.1599V34.1352C28.758 34.181 28.7969 34.1969 29.0918 34.2195L29.5028 34.2501L29.5262 34.3577H27.5166L27.5401 34.2501H27.5406Z" fill="#805C3C"/>
<path d="M31.9004 34.2504L32.2805 34.2119C32.4743 34.1966 32.5445 34.166 32.5445 34.1196V29.7778C32.5445 29.7319 32.5137 29.7161 32.2262 29.6935L31.9079 29.6629L31.8844 29.5553H33.8472L33.8237 29.6629L33.2962 29.7014C33.0944 29.7167 33.0247 29.7631 33.0247 29.801V34.2124L33.8003 34.2277C34.8863 34.2198 35.1035 33.8897 35.3286 33.3519L35.4292 32.9675H35.5458L35.2435 34.3585H31.8765L31.8999 34.2509L31.9004 34.2504Z" fill="#805C3C"/>
<path d="M36.9287 34.2504L37.3322 34.2119C37.5259 34.1966 37.5962 34.166 37.5962 34.1196V29.7778C37.5962 29.7319 37.5653 29.7161 37.2779 29.6935L36.9366 29.6629L36.9132 29.5553H40.3888L40.5128 30.8082H40.4197L40.3345 30.4775C40.1173 29.878 39.8847 29.6708 39.0314 29.6708H38.0769V31.7689H38.8525C39.4966 31.7536 39.5429 31.6845 39.6441 31.3307L39.7218 31.1077L39.807 31.1156L39.6595 32.5836L39.5743 32.5757L39.5589 32.3679C39.528 31.9682 39.5046 31.9223 38.8142 31.9071L38.0769 31.8991V34.2124L39.0388 34.2356C40.1248 34.2277 40.3579 33.8897 40.5751 33.3519L40.6683 33.0292L40.7849 33.0371L40.49 34.359H36.9058L36.9292 34.2514L36.9287 34.2504Z" fill="#805C3C"/>
<path d="M44.5249 32.0145C44.5249 30.5238 45.6109 29.4402 47.1552 29.4402C47.6827 29.4402 48.0862 29.563 48.404 29.717L48.8229 29.5557L48.9007 30.9314H48.7921L48.3423 29.871C48.1405 29.7328 47.7136 29.5636 47.1397 29.5636C45.8674 29.5636 45.045 30.5628 45.045 31.9459C45.045 33.329 45.852 34.3435 47.1317 34.3435C47.9308 34.3435 48.3423 34.0208 48.6909 33.5057L48.9161 32.9752H49.0327L48.7687 34.1664L48.5046 34.1743C48.1943 34.3124 47.6359 34.4664 47.1237 34.4664C45.6188 34.4664 44.5249 33.4819 44.5249 32.0145Z" fill="#805C3C"/>
<path d="M50.5058 34.2504L50.9248 34.2119C51.1265 34.1966 51.1963 34.166 51.1963 34.1196V29.7778C51.1963 29.7319 51.1654 29.7161 50.8705 29.6935L50.5138 29.6629L50.4904 29.5553H52.3914L52.3679 29.6629L51.949 29.7014C51.7472 29.7167 51.6775 29.7472 51.6775 29.7936V34.1354C51.6775 34.1813 51.7164 34.1971 52.0033 34.2198L52.36 34.2504L52.3834 34.3579H50.4824L50.5058 34.2504Z" fill="#805C3C"/>
<path d="M54.929 34.2501L55.4023 34.2116C55.604 34.1963 55.6737 34.1657 55.6737 34.1193V29.67H55.1696C54.4558 29.7006 54.2386 30.008 54.0214 30.4383L53.9208 30.7842H53.8042L54.0911 29.5545H57.8153L57.9937 30.7916H57.8851L57.8153 30.4383C57.5673 29.8466 57.3809 29.7006 56.6362 29.67H56.155V34.1352C56.155 34.181 56.1859 34.1969 56.4808 34.2195L56.8917 34.2501L56.9151 34.3577H54.9056L54.929 34.2501Z" fill="#805C3C"/>
<path d="M60.4136 34.2501L60.8869 34.2116C61.0807 34.1963 61.1584 34.1657 61.1584 34.1193V32.229L59.8861 30.1003C59.7312 29.8234 59.6535 29.7006 59.374 29.6853L59.0791 29.6621L59.0557 29.5545H60.8943L60.8709 29.6621L60.5063 29.6774C60.2502 29.6853 60.2193 29.7544 60.3742 30.0154L61.5459 32.0286H61.5693L62.5238 30.3381C62.8033 29.8155 62.7719 29.7232 62.3221 29.6774L62.0037 29.6621L61.9803 29.5545H63.6795L63.6561 29.6621L63.408 29.6774C63.0588 29.7006 63.0125 29.7079 62.6787 30.3307L61.6311 32.1599V34.1352C61.6311 34.181 61.6699 34.1969 61.9649 34.2195L62.3758 34.2501L62.3992 34.3577H60.3897L60.4131 34.2501H60.4136Z" fill="#805C3C"/>
<path d="M26.3726 39.0114C26.5243 39.1164 26.6414 39.2492 26.7239 39.4105C26.8065 39.5717 26.8451 39.7428 26.8398 39.9243C26.8428 40.125 26.8024 40.317 26.7198 40.4997C26.6367 40.6823 26.5184 40.8372 26.3644 40.9642C25.9985 41.2786 25.4387 41.4763 24.6846 41.5587C24.6618 41.5616 24.6413 41.572 24.6225 41.5906C24.6038 41.6091 24.5933 41.6294 24.5903 41.6521C24.5845 41.7089 24.6091 41.7472 24.6629 41.7669C25.2941 41.996 25.7016 42.2564 25.8843 42.5481C26.0131 42.7349 26.0412 42.9361 25.9698 43.1507C25.8041 43.6599 25.2566 43.9151 24.3286 43.9151C24.0768 43.9151 23.8063 43.8977 23.5165 43.8623C23.2267 43.827 22.9591 43.7817 22.7149 43.7266C22.4708 43.6715 22.2904 43.6292 22.1751 43.599C22.0592 43.5695 21.9672 43.5434 21.8987 43.5207C21.8671 43.512 21.8443 43.4946 21.8302 43.468C21.8162 43.4413 21.8133 43.4129 21.8215 43.3833C21.8296 43.3537 21.8478 43.3317 21.8747 43.3177C21.9017 43.3038 21.9309 43.3009 21.9626 43.309C22.1113 43.3543 22.2746 43.3984 22.4532 43.4407C22.6318 43.483 22.8367 43.5248 23.068 43.566C23.2993 43.6072 23.5259 43.6396 23.7472 43.6634C23.9685 43.6878 24.1922 43.6965 24.4182 43.6913C24.6436 43.6855 24.8462 43.6646 25.0248 43.6275C25.2034 43.5909 25.3585 43.5265 25.4897 43.4343C25.6208 43.3421 25.7081 43.2255 25.7508 43.084C25.8023 42.9338 25.7836 42.7952 25.6952 42.6682C25.458 42.2947 24.7912 41.9774 23.6939 41.717C23.657 41.7083 23.6225 41.7135 23.5909 41.7321C23.5592 41.7507 23.5382 41.7779 23.5265 41.815C23.3807 42.319 23.2062 42.8126 23.0036 43.2969C22.9895 43.3253 22.9679 43.3444 22.9392 43.3543C22.9105 43.3641 22.8818 43.363 22.8537 43.3502C22.825 43.3375 22.8057 43.316 22.7957 43.2864C22.7858 43.2569 22.7881 43.2279 22.8022 43.1994C22.9966 42.7384 23.1623 42.2686 23.2993 41.7901C23.3104 41.7507 23.3057 41.713 23.2841 41.6776C23.2624 41.6422 23.2319 41.6202 23.1921 41.612C23.0352 41.5807 22.8976 41.5569 22.7805 41.5401C22.7489 41.5372 22.7243 41.5233 22.7056 41.4978C22.6868 41.4723 22.6798 41.445 22.6839 41.4149C22.688 41.3853 22.7026 41.3609 22.7266 41.3429C22.7507 41.3244 22.7788 41.3168 22.8104 41.3197C22.9445 41.3366 23.1131 41.3522 23.3163 41.3667C23.3479 41.3667 23.3771 41.3574 23.4041 41.3389C23.431 41.3203 23.4503 41.296 23.462 41.2646C23.5622 40.9306 23.7004 40.4509 23.8778 39.8257C23.8889 39.7834 23.9164 39.7561 23.9591 39.7451C24.0019 39.7341 24.0382 39.7445 24.0686 39.777C24.0985 39.8095 24.1079 39.8454 24.0967 39.8855C23.9826 40.2932 23.8555 40.7316 23.7156 41.2014C23.7015 41.2467 23.7085 41.2878 23.7372 41.3244C23.7659 41.3609 23.8028 41.3795 23.8485 41.3795C24.9738 41.3824 25.7625 41.1887 26.2139 40.7978C26.3451 40.6905 26.4458 40.56 26.5161 40.4074C26.5857 40.2549 26.6179 40.0931 26.6127 39.9237C26.6185 39.7793 26.5875 39.643 26.5207 39.5143C26.4534 39.3855 26.3603 39.28 26.2403 39.1982C26.0834 39.0851 25.8802 38.9981 25.6319 38.9372C25.3831 38.8763 25.1296 38.8444 24.8714 38.8415C24.6126 38.8386 24.362 38.8537 24.119 38.8862C23.876 38.9186 23.6635 38.9645 23.4802 39.0242C23.2033 39.1147 22.9538 39.2214 22.7325 39.3449C22.5112 39.4679 22.3355 39.5914 22.2055 39.7144C22.0756 39.8373 21.9754 39.9522 21.9058 40.0583C21.8355 40.1644 21.7963 40.2584 21.7881 40.3407C21.7682 40.4173 21.791 40.4782 21.8566 40.5234C21.8935 40.549 21.9468 40.5617 22.0153 40.5617C22.0838 40.5617 22.1669 40.5495 22.2641 40.5258C22.3613 40.502 22.4784 40.4562 22.6154 40.39C22.7524 40.3233 22.8982 40.2392 23.0528 40.1377C23.0785 40.1209 23.1072 40.1157 23.1383 40.1227C23.1699 40.1296 23.1939 40.1459 23.2109 40.1714C23.2278 40.1969 23.2331 40.2242 23.2261 40.2543C23.2191 40.2839 23.2027 40.3071 23.1769 40.3245C22.8596 40.5339 22.5756 40.6725 22.3238 40.7403C22.0726 40.8082 21.8765 40.7995 21.7366 40.7148C21.671 40.6725 21.6224 40.6151 21.5908 40.5432C21.5591 40.4712 21.5492 40.3953 21.5609 40.3158C21.575 40.1998 21.6247 40.0757 21.709 39.9446C21.7933 39.813 21.9087 39.6802 22.0562 39.5456C22.2032 39.411 22.3941 39.2788 22.6283 39.1489C22.8625 39.019 23.1242 38.907 23.4123 38.8137C23.6096 38.7487 23.8379 38.6988 24.0979 38.6652C24.3579 38.631 24.6255 38.6165 24.9012 38.6205C25.177 38.6246 25.4475 38.6611 25.7133 38.729C25.9792 38.7968 26.1993 38.8931 26.3732 39.0178L26.3726 39.0114Z" fill="#805C3C"/>
<path d="M29.8373 42.8105C29.8672 42.8134 29.8923 42.8267 29.9122 42.8511C29.9321 42.8754 29.9409 42.9027 29.938 42.934C29.9351 42.9653 29.921 42.9909 29.8953 43.0106C29.8525 43.0448 29.7992 43.0842 29.7366 43.1295C29.6739 43.1747 29.5522 43.2507 29.3724 43.3568C29.1926 43.463 29.0129 43.5558 28.8343 43.6346C28.6557 43.7141 28.4409 43.786 28.1891 43.851C27.9379 43.9159 27.6978 43.9484 27.4689 43.9484C27.1773 43.9513 26.8975 43.8991 26.6287 43.7912C26.5432 43.757 26.4706 43.717 26.4121 43.67C26.3535 43.623 26.3102 43.5778 26.2815 43.5343C26.2528 43.4902 26.2323 43.4438 26.2194 43.3939C26.2066 43.3446 26.2007 43.3011 26.2025 43.2646C26.2042 43.2281 26.2089 43.1909 26.2177 43.1544C26.2493 43.0216 26.3231 42.8899 26.4408 42.7594C26.5579 42.6295 26.6884 42.5275 26.833 42.4538C26.9771 42.3801 27.1065 42.3465 27.2207 42.3517C27.2979 42.3517 27.3641 42.3784 27.4197 42.4323C27.4754 42.4863 27.5064 42.5524 27.5117 42.6319C27.5257 42.7676 27.449 42.8911 27.2804 43.0013C27.0374 43.1515 26.7716 43.2176 26.4835 43.2008C26.4694 43.1979 26.4566 43.2008 26.4449 43.2095C26.4331 43.2182 26.429 43.2292 26.432 43.2437C26.4121 43.3881 26.5063 43.5012 26.7148 43.5836C26.9004 43.6601 27.1006 43.7048 27.3149 43.7176C27.5292 43.7303 27.7289 43.7199 27.9151 43.6857C28.1007 43.6514 28.291 43.5992 28.4848 43.5285C28.6792 43.4577 28.8454 43.3864 28.9842 43.3139C29.123 43.242 29.2571 43.1654 29.387 43.0848C29.517 43.0042 29.6054 42.9468 29.6529 42.9131C29.7003 42.8795 29.7337 42.854 29.7536 42.8366C29.7793 42.8169 29.8068 42.8082 29.8373 42.8111V42.8105ZM26.5819 42.9421C26.545 42.9932 26.5602 43.0158 26.6293 43.01C26.7493 43.0013 26.9021 42.9508 27.0877 42.8575C27.1164 42.8406 27.1404 42.8261 27.1603 42.8151C27.2488 42.756 27.2903 42.702 27.2845 42.6539C27.2815 42.6226 27.2745 42.6023 27.2628 42.5924C27.2511 42.5826 27.2329 42.5762 27.2072 42.5733C27.1158 42.5675 27.0093 42.6 26.8881 42.6707C26.7669 42.7415 26.6644 42.8319 26.5819 42.9421Z" fill="#805C3C"/>
<path d="M33.1522 42.8767C33.1838 42.8784 33.2095 42.89 33.2294 42.9127C33.2494 42.9353 33.2587 42.962 33.2576 42.9933C33.2558 43.0246 33.2441 43.0501 33.2213 43.0698C33.1955 43.0925 33.1621 43.1214 33.1205 43.1568C33.079 43.1922 33.004 43.2496 32.8957 43.3285C32.7874 43.408 32.6773 43.4799 32.5655 43.5448C32.4542 43.6098 32.3225 43.6742 32.1714 43.738C32.0198 43.8018 31.874 43.8464 31.7341 43.8719C31.5941 43.8975 31.4472 43.8998 31.2926 43.8783C31.1386 43.8569 30.9969 43.8052 30.8681 43.7235C30.7481 43.6469 30.6526 43.5483 30.5812 43.4265C30.5613 43.3923 30.5303 43.3743 30.4893 43.3714C30.4477 43.3685 30.4155 43.3842 30.3927 43.4184C30.2925 43.5709 30.1836 43.7003 30.0648 43.8047C29.9459 43.9096 29.837 43.963 29.7369 43.9659H29.7328C29.6813 43.963 29.6338 43.9468 29.5893 43.9172C29.5448 43.8876 29.5132 43.8487 29.4927 43.8006C29.4072 43.5883 29.4201 43.3819 29.5314 43.1806C29.6256 42.9852 29.758 42.8193 29.9278 42.6818C30.0976 42.5444 30.2896 42.4504 30.5039 42.3994C30.5466 42.3884 30.5829 42.3982 30.6134 42.429C30.6433 42.4603 30.652 42.4962 30.6392 42.5374C30.6263 42.5786 30.5982 42.6047 30.5554 42.6157C30.3757 42.6581 30.2141 42.7369 30.0712 42.8512C29.9283 42.966 29.8171 43.1064 29.7369 43.2734C29.6567 43.4091 29.6426 43.5506 29.6941 43.6979C29.7111 43.7264 29.724 43.7403 29.7328 43.7403C29.7814 43.7716 29.8757 43.6834 30.0156 43.477C30.1555 43.2705 30.2814 43.0466 30.3927 42.8065C30.4155 42.7555 30.4553 42.7346 30.5127 42.7427C30.5671 42.7514 30.5982 42.7822 30.607 42.8361C30.6099 42.85 30.6134 42.8692 30.6175 42.8935C30.6216 42.9179 30.6339 42.9614 30.6538 43.0252C30.6737 43.089 30.6965 43.1493 30.7223 43.2055C30.7481 43.2624 30.7849 43.3221 30.8335 43.3859C30.8821 43.4497 30.9348 43.4996 30.9922 43.5367C31.1005 43.6075 31.2229 43.6498 31.3587 43.6643C31.4946 43.6782 31.6246 43.6713 31.7487 43.6428C31.8728 43.6144 32.0034 43.5698 32.141 43.5089C32.278 43.448 32.3969 43.3865 32.497 43.3244C32.5971 43.2624 32.6955 43.1957 32.7927 43.1249C32.8899 43.0542 32.956 43.0037 32.9917 42.9741C33.0274 42.9446 33.0538 42.9214 33.0708 42.904C33.0936 42.8842 33.1205 42.875 33.1522 42.8761V42.8767Z" fill="#805C3C"/>
<path d="M36.7469 42.72C36.7785 42.7189 36.8054 42.7288 36.8283 42.7496C36.8511 42.7705 36.8628 42.7972 36.8628 42.8279C36.8628 42.8587 36.8529 42.8859 36.833 42.9085C36.679 43.0669 36.4922 43.2246 36.2738 43.3818C36.0554 43.539 35.8071 43.6764 35.5302 43.7936C35.2532 43.9113 35.0032 43.9699 34.7802 43.9699H34.7714C34.5225 43.9786 34.3141 43.8933 34.1455 43.7153C34.074 43.6358 34.0313 43.5442 34.0167 43.4392C34.0108 43.3998 33.9886 43.3743 33.9505 43.3627C33.9118 43.3516 33.8785 43.3598 33.8498 43.3882C33.5096 43.7391 33.2426 43.8568 33.0482 43.7408C32.9797 43.7014 32.9387 43.637 32.9259 43.5477C32.913 43.4584 32.9253 43.3586 32.9622 43.2484C32.999 43.1382 33.0371 43.0419 33.0757 42.9596C33.1144 42.8778 33.1565 42.7954 33.2022 42.7131C33.2192 42.6876 33.242 42.6713 33.2707 42.6644C33.2994 42.6574 33.3263 42.6609 33.3521 42.6748C33.3779 42.6887 33.3948 42.7102 33.4036 42.7386C33.4124 42.767 33.4107 42.7954 33.3995 42.8233C33.331 42.9393 33.2748 43.0541 33.2303 43.1672C33.1858 43.2803 33.1601 43.3673 33.153 43.4282C33.146 43.4891 33.1495 43.5297 33.1636 43.5494C33.235 43.5918 33.3685 43.5239 33.5641 43.3458C33.7596 43.1678 33.9435 42.9538 34.115 42.705C34.132 42.6795 34.1542 42.6638 34.1812 42.658C34.2081 42.6522 34.2345 42.6557 34.2602 42.6684C34.286 42.6812 34.3036 42.7003 34.3135 42.7258C34.3235 42.7514 34.324 42.7769 34.3158 42.8024C34.293 42.8674 34.2725 42.9433 34.2538 43.0298C34.235 43.1162 34.228 43.2142 34.2321 43.325C34.2362 43.4352 34.2614 43.5158 34.3071 43.5668C34.4359 43.6944 34.5899 43.7553 34.7696 43.7495H34.7784C34.9781 43.7495 35.2064 43.6927 35.4617 43.5796C35.7176 43.4665 35.9477 43.3371 36.1514 43.191C36.3558 43.0454 36.5261 42.9004 36.6637 42.756C36.6866 42.7334 36.7135 42.7212 36.7451 42.72H36.7469Z" fill="#805C3C"/>
<path d="M39.5162 42.7553C39.5478 42.7553 39.5747 42.7657 39.5975 42.7872C39.6204 42.8086 39.6321 42.8347 39.6321 42.8655C39.6321 42.8962 39.6204 42.9234 39.5975 42.9461C39.5659 42.9803 39.5238 43.022 39.4711 43.0713C39.4184 43.1206 39.3212 43.2007 39.1795 43.3115C39.0378 43.4217 38.8979 43.5197 38.7597 43.6043C38.6209 43.689 38.4599 43.7662 38.2755 43.8358C38.091 43.9053 37.9189 43.9396 37.759 43.9396C37.6419 43.9396 37.526 43.9181 37.4118 43.8758C37.1548 43.7795 36.9645 43.5661 36.8416 43.2349C36.7186 42.9037 36.6729 42.485 36.7045 41.9781C36.7016 41.9555 36.6917 41.9369 36.6747 41.923C36.6577 41.9091 36.6378 41.9033 36.615 41.9062C36.4949 41.9149 36.372 41.9242 36.2467 41.934C36.1208 41.9439 36.0125 41.9526 35.9211 41.9595C35.8298 41.9665 35.7461 41.9723 35.6705 41.9764C35.595 41.9804 35.537 41.9839 35.4972 41.9868C35.4574 41.9897 35.4357 41.9909 35.4328 41.9909H35.424C35.3924 41.9938 35.3655 41.9845 35.3427 41.963C35.3198 41.9416 35.3081 41.9155 35.3081 41.8847C35.3081 41.854 35.3181 41.8267 35.338 41.8041C35.3579 41.7815 35.3836 41.7699 35.4153 41.7699C35.4182 41.7699 35.441 41.7687 35.4838 41.7658C35.5265 41.7629 35.5874 41.7589 35.6659 41.7531C35.7443 41.7473 35.8316 41.7409 35.927 41.7339C36.023 41.727 36.1366 41.7183 36.2678 41.7084C36.3995 41.6985 36.5277 41.6893 36.6536 41.6806C36.7051 41.6748 36.7362 41.6353 36.7479 41.5617C36.7736 41.3865 36.807 41.2148 36.8486 41.0478C36.8902 40.8808 36.9382 40.7207 36.992 40.5682C37.0465 40.4156 37.1085 40.2892 37.1782 40.1906C37.2485 40.0914 37.3205 40.0352 37.3949 40.0207C37.509 40.001 37.5992 40.0572 37.6648 40.1906C37.7075 40.2753 37.7034 40.4435 37.6519 40.6935C37.6004 40.944 37.5178 41.2276 37.4031 41.5449C37.3943 41.5675 37.3925 41.5854 37.3966 41.5976C37.4007 41.6104 37.406 41.6191 37.4118 41.6231C37.4177 41.6272 37.4247 41.6295 37.4335 41.6295C38.0875 41.5901 38.5594 41.5704 38.8475 41.5704C38.8791 41.5704 38.9055 41.582 38.9266 41.6046C38.9482 41.6272 38.9588 41.6533 38.9588 41.6829C38.9588 41.7125 38.9482 41.7386 38.9266 41.7612C38.9049 41.7838 38.8785 41.7954 38.8475 41.7954C38.4019 41.7954 37.9048 41.8169 37.3562 41.8592C37.3305 41.8592 37.3129 41.8621 37.3029 41.8679C37.293 41.8737 37.2836 41.8865 37.2748 41.9062C37.2034 42.1126 37.0963 42.3945 36.9534 42.7512C37.0248 43.2523 37.2046 43.5579 37.4932 43.6681C37.5764 43.6995 37.6659 43.7151 37.7631 43.7151C37.8603 43.7151 37.9552 43.7024 38.0483 43.6768C38.1414 43.6513 38.238 43.6159 38.3399 43.5707C38.4412 43.5255 38.5348 43.4773 38.6203 43.4263C38.7058 43.3753 38.7925 43.319 38.8797 43.2564C38.967 43.1943 39.0413 43.138 39.1028 43.0887C39.1643 43.0394 39.2228 42.989 39.2784 42.938C39.3341 42.8869 39.3727 42.8515 39.3944 42.8318C39.416 42.8121 39.4307 42.7976 39.4395 42.7895C39.4594 42.7669 39.4851 42.7553 39.5167 42.7553H39.5162ZM36.9188 42.2205C36.9446 42.2205 36.9768 42.1683 37.0155 42.0633C37.0541 41.959 37.0646 41.8963 37.0477 41.8766C37.0078 41.8569 36.9704 41.8598 36.9364 41.8853C36.9224 41.8992 36.9112 41.934 36.9042 41.9891C36.8972 42.0442 36.8948 42.0964 36.8978 42.1463C36.9007 42.1956 36.9077 42.2205 36.9194 42.2205H36.9188ZM36.9745 41.5582C36.9628 41.6231 36.9727 41.6556 37.0043 41.6556C37.0272 41.6556 37.05 41.6545 37.0728 41.6516C37.1156 41.6487 37.1413 41.6249 37.1501 41.5796C37.4101 40.8268 37.5143 40.3982 37.4628 40.2933C37.4569 40.2764 37.4458 40.2654 37.4282 40.2614C37.4113 40.2573 37.3966 40.2608 37.3855 40.2718C37.3199 40.3426 37.2456 40.4992 37.1624 40.741C37.0793 40.9829 37.0166 41.2554 36.9739 41.5582H36.9745Z" fill="#805C3C"/>
<path d="M42.6999 42.7424C42.7315 42.7424 42.7578 42.7528 42.7789 42.7743C42.8006 42.7957 42.8111 42.8218 42.8111 42.8525C42.8111 42.8833 42.8012 42.9094 42.7812 42.9291C42.5898 43.1072 42.365 43.2145 42.1062 43.2498C41.8474 43.2852 41.6026 43.2435 41.3713 43.1246C41.3227 43.099 41.2718 43.0898 41.2191 43.0967C41.1664 43.1037 41.1196 43.1269 41.0798 43.1669C40.9457 43.3026 40.811 43.454 40.6769 43.621C40.6629 43.6349 40.6541 43.6523 40.6512 43.6721C40.5739 44.1308 40.4574 44.5797 40.3016 45.0199C40.1459 45.4601 39.9995 45.724 39.8625 45.8116C39.8227 45.84 39.7793 45.8539 39.7337 45.8539C39.6739 45.8539 39.6236 45.8325 39.5838 45.7901C39.4895 45.6909 39.4479 45.5738 39.4597 45.4381C39.4655 45.2119 39.5598 44.9294 39.7425 44.5913C39.9251 44.2532 40.1541 43.9127 40.4281 43.5706C40.4392 43.5537 40.4468 43.5352 40.4497 43.5155C40.4667 43.4337 40.4767 43.3513 40.4796 43.269C40.4111 43.4047 40.3168 43.5218 40.1968 43.6193C40.0768 43.7167 39.9409 43.7869 39.7899 43.8292C39.7243 43.8489 39.6576 43.8495 39.5908 43.8315C39.5235 43.813 39.4673 43.7788 39.4216 43.7277C39.2617 43.5497 39.2776 43.2243 39.469 42.7516C39.4801 42.7232 39.5012 42.7029 39.5311 42.6902C39.5609 42.6774 39.5902 42.6768 39.6189 42.6878C39.6476 42.6994 39.6675 42.7192 39.6786 42.747C39.6898 42.7754 39.6898 42.8038 39.6786 42.8317C39.6131 42.9958 39.5715 43.1373 39.5545 43.2562C39.5375 43.3751 39.5346 43.4534 39.5457 43.4917C39.5568 43.53 39.5715 43.5601 39.5885 43.5827C39.6312 43.6222 39.6798 43.632 39.7343 43.6123C39.8455 43.5839 39.9462 43.5323 40.0364 43.4575C40.1265 43.3826 40.1951 43.3072 40.2419 43.2324C40.2893 43.1576 40.3309 43.0741 40.3684 42.9819C40.4052 42.8897 40.4281 42.8265 40.4369 42.7911C40.4457 42.7557 40.4509 42.7267 40.4538 42.7041C40.465 42.6472 40.4989 42.6165 40.5546 42.6107C40.6102 42.6049 40.6494 42.6293 40.6722 42.6826C40.7009 42.7673 40.715 42.8537 40.715 42.9413C40.7179 42.9923 40.7431 43.0271 40.7899 43.0451C40.8374 43.0637 40.8789 43.0544 40.9164 43.0173C40.9908 42.9407 41.0634 42.8699 41.1348 42.805C41.1805 42.7656 41.2279 42.7638 41.2765 42.8009C41.4194 42.903 41.5628 42.9714 41.7074 43.0068C41.8515 43.0422 41.9727 43.0526 42.0693 43.0387C42.1665 43.0248 42.2613 42.9946 42.3544 42.9494C42.4475 42.9042 42.5102 42.8682 42.5429 42.8409C42.5757 42.8143 42.6009 42.7922 42.6179 42.7754C42.6407 42.7528 42.6677 42.7412 42.6993 42.7412L42.6999 42.7424ZM40.3297 44.1389C40.3356 44.1221 40.3332 44.1123 40.3233 44.1094C40.3133 44.1065 40.304 44.1123 40.2952 44.1262C40.1154 44.3895 39.9696 44.6377 39.8578 44.8714C39.746 45.1052 39.6892 45.2954 39.6862 45.4427C39.6833 45.5616 39.7003 45.6237 39.7378 45.6295C39.7577 45.6324 39.7799 45.6155 39.8039 45.5784C39.8279 45.5419 39.8678 45.4694 39.9216 45.3621C40.1014 44.9689 40.2372 44.5612 40.3285 44.1395L40.3297 44.1389Z" fill="#805C3C"/>
<path d="M48.961 39.0113C49.1126 39.1163 49.2297 39.2491 49.3123 39.4103C49.3949 39.5716 49.4335 39.7427 49.4282 39.9242C49.4312 40.1249 49.3908 40.3168 49.3082 40.4995C49.2251 40.6822 49.1068 40.8371 48.9528 40.9641C48.5869 41.2784 48.0271 41.4762 47.273 41.5586C47.2501 41.5615 47.2296 41.5719 47.2109 41.5905C47.1922 41.609 47.1816 41.6293 47.1787 41.6519C47.1728 41.7088 47.1974 41.7471 47.2513 41.7668C47.8825 41.9959 48.29 42.2563 48.4727 42.548C48.6015 42.7348 48.6296 42.936 48.5582 43.1506C48.3925 43.6598 47.845 43.915 46.917 43.915C46.6652 43.915 46.3947 43.8976 46.1049 43.8622C45.8151 43.8268 45.5475 43.7816 45.3033 43.7265C45.0592 43.6714 44.8788 43.6291 44.7635 43.5989C44.6481 43.5688 44.5556 43.5432 44.4871 43.5206C44.4555 43.5119 44.4327 43.4945 44.4186 43.4678C44.4046 43.4412 44.4016 43.4127 44.4098 43.3832C44.4186 43.3536 44.4362 43.3315 44.4631 43.3176C44.49 43.3037 44.5193 43.3008 44.5509 43.3089C44.6997 43.3542 44.863 43.3982 45.0416 43.4406C45.2202 43.4829 45.4251 43.5247 45.6564 43.5659C45.8877 43.607 46.1142 43.6395 46.3356 43.6633C46.5569 43.6877 46.7806 43.6964 47.0066 43.6911C47.232 43.6853 47.4346 43.6645 47.6132 43.6273C47.7917 43.5908 47.9469 43.5264 48.078 43.4342C48.2092 43.342 48.2964 43.2254 48.3392 43.0839C48.3907 42.9337 48.372 42.7951 48.2836 42.6681C48.0464 42.2946 47.3795 41.9773 46.2823 41.7169C46.2454 41.7082 46.2109 41.7134 46.1792 41.732C46.1476 41.7505 46.1265 41.7778 46.1148 41.8149C45.969 42.3189 45.7946 42.8125 45.592 43.2967C45.5779 43.3252 45.5563 43.3443 45.5276 43.3542C45.4989 43.364 45.4702 43.3629 45.4421 43.3501C45.4134 43.3373 45.3941 43.3159 45.3841 43.2863C45.3742 43.2567 45.3765 43.2277 45.3906 43.1993C45.5849 42.7382 45.7506 42.2685 45.8877 41.79C45.8988 41.7505 45.8941 41.7128 45.8724 41.6775C45.8508 41.6421 45.8203 41.62 45.7805 41.6119C45.6236 41.5806 45.486 41.5568 45.3689 41.54C45.3373 41.5371 45.3127 41.5232 45.2939 41.4977C45.2752 41.4721 45.2682 41.4449 45.2723 41.4147C45.2764 41.3852 45.291 41.3608 45.315 41.3428C45.339 41.3243 45.3671 41.3167 45.3988 41.3196C45.5328 41.3364 45.7015 41.3521 45.9046 41.3666C45.9363 41.3666 45.9655 41.3573 45.9925 41.3388C46.0194 41.3202 46.0387 41.2958 46.0504 41.2645C46.1506 40.9305 46.2887 40.4508 46.4661 39.8256C46.4773 39.7833 46.5048 39.756 46.5475 39.745C46.5903 39.734 46.6266 39.7444 46.657 39.7769C46.6869 39.8094 46.6962 39.8453 46.6851 39.8853C46.5709 40.2931 46.4439 40.7315 46.304 41.2013C46.2899 41.2465 46.2969 41.2877 46.3256 41.3243C46.3543 41.3608 46.3912 41.3794 46.4369 41.3794C47.5622 41.3823 48.3509 41.1885 48.8023 40.7976C48.9335 40.6903 49.0342 40.5598 49.1044 40.4073C49.1741 40.2548 49.2063 40.093 49.2011 39.9236C49.2069 39.7792 49.1759 39.6429 49.1091 39.5142C49.0418 39.3854 48.9487 39.2798 48.8287 39.1981C48.6717 39.085 48.4686 38.998 48.2203 38.9371C47.9715 38.8762 47.718 38.8443 47.4597 38.8414C47.201 38.8385 46.9504 38.8536 46.7074 38.886C46.4644 38.9185 46.2518 38.9643 46.0686 39.0241C45.7916 39.1146 45.5422 39.2213 45.3209 39.3448C45.0996 39.4678 44.9239 39.5913 44.7939 39.7142C44.6639 39.8372 44.5638 39.952 44.4941 40.0582C44.4239 40.1643 44.3847 40.2583 44.3765 40.3406C44.3565 40.4172 44.3794 40.4781 44.445 40.5233C44.4818 40.5488 44.5351 40.5616 44.6036 40.5616C44.6721 40.5616 44.7553 40.5494 44.8525 40.5256C44.9497 40.5019 45.0668 40.456 45.2038 40.3899C45.3408 40.3232 45.4866 40.2391 45.6412 40.1376C45.6669 40.1208 45.6956 40.1156 45.7266 40.1226C45.7583 40.1295 45.7823 40.1457 45.7992 40.1713C45.8162 40.1968 45.8215 40.224 45.8145 40.2542C45.8074 40.2838 45.791 40.307 45.7653 40.3244C45.4479 40.5338 45.164 40.6724 44.9122 40.7402C44.661 40.8081 44.4649 40.7994 44.3249 40.7147C44.2594 40.6724 44.2108 40.6149 44.1791 40.543C44.1475 40.4711 44.1376 40.3951 44.1493 40.3157C44.1633 40.1997 44.2131 40.0756 44.2974 39.9445C44.3817 39.8128 44.4971 39.68 44.6446 39.5455C44.7916 39.4109 44.9825 39.2787 45.2167 39.1488C45.4509 39.0189 45.7126 38.9069 46.0012 38.8135C46.1986 38.7486 46.4269 38.6987 46.6869 38.6651C46.9468 38.6309 47.2144 38.6164 47.4902 38.6204C47.766 38.6245 48.0365 38.661 48.3023 38.7289C48.5681 38.7967 48.7883 38.893 48.9622 39.0177L48.961 39.0113Z" fill="#805C3C"/>
<path d="M52.411 42.8767C52.4426 42.8784 52.4683 42.89 52.4882 42.9127C52.5081 42.9353 52.5175 42.962 52.5163 42.9933C52.5146 43.0246 52.5029 43.0501 52.48 43.0698C52.4543 43.0925 52.4209 43.1214 52.3793 43.1568C52.3378 43.1922 52.2628 43.2496 52.1545 43.3285C52.0462 43.408 51.9361 43.4799 51.8243 43.5448C51.713 43.6098 51.5813 43.6742 51.4302 43.738C51.2786 43.8018 51.1328 43.8464 50.9928 43.8719C50.8529 43.8975 50.7059 43.8998 50.5514 43.8783C50.3974 43.8569 50.2557 43.8052 50.1269 43.7235C50.0068 43.6469 49.9114 43.5483 49.84 43.4265C49.8201 43.3923 49.789 43.3743 49.7481 43.3714C49.7065 43.3685 49.6743 43.3842 49.6514 43.4184C49.5513 43.5709 49.4424 43.7003 49.3236 43.8047C49.2047 43.9096 49.0958 43.963 48.9957 43.9659H48.9916C48.9401 43.963 48.8926 43.9468 48.8481 43.9172C48.8036 43.8876 48.772 43.8487 48.7515 43.8006C48.666 43.5883 48.6789 43.3819 48.7902 43.1806C48.8844 42.9852 49.0168 42.8193 49.1866 42.6818C49.3563 42.5444 49.5484 42.4504 49.7627 42.3994C49.8054 42.3884 49.8417 42.3982 49.8722 42.429C49.902 42.4603 49.9108 42.4962 49.8979 42.5374C49.8851 42.5786 49.857 42.6047 49.8142 42.6157C49.6345 42.6581 49.4729 42.7369 49.33 42.8512C49.1871 42.966 49.0759 43.1064 48.9957 43.2734C48.9155 43.4091 48.9014 43.5506 48.9529 43.6979C48.9699 43.7264 48.9828 43.7403 48.9916 43.7403C49.0402 43.7716 49.1344 43.6834 49.2744 43.477C49.4143 43.2705 49.5402 43.0466 49.6514 42.8065C49.6743 42.7555 49.7141 42.7346 49.7715 42.7427C49.8259 42.7514 49.857 42.7822 49.8657 42.8361C49.8687 42.85 49.8722 42.8692 49.8763 42.8935C49.8804 42.9179 49.8927 42.9614 49.9126 43.0252C49.9325 43.089 49.9553 43.1493 49.9811 43.2055C50.0069 43.2624 50.0437 43.3221 50.0923 43.3859C50.1409 43.4497 50.1936 43.4996 50.251 43.5367C50.3593 43.6075 50.4817 43.6498 50.6175 43.6643C50.7534 43.6782 50.8834 43.6713 51.0075 43.6428C51.1316 43.6144 51.2622 43.5698 51.3998 43.5089C51.5368 43.448 51.6556 43.3865 51.7558 43.3244C51.8559 43.2624 51.9543 43.1957 52.0514 43.1249C52.1486 43.0542 52.2148 43.0037 52.2505 42.9741C52.2862 42.9446 52.3126 42.9214 52.3296 42.904C52.3524 42.8842 52.3793 42.875 52.411 42.8761V42.8767Z" fill="#805C3C"/>
<path d="M55.9866 42.7943C56.0182 42.7943 56.0446 42.8059 56.0656 42.8286C56.0873 42.8512 56.0979 42.8773 56.0979 42.9069C56.0979 42.9364 56.0861 42.9625 56.0633 42.9852C55.7864 43.2514 55.4444 43.4555 55.0393 43.5988C54.6335 43.7414 54.2623 43.8134 53.925 43.8134C53.7623 43.8221 53.6048 43.7919 53.4537 43.724C53.3881 43.6875 53.3348 43.6463 53.295 43.6011C53.2552 43.5558 53.2294 43.5071 53.2177 43.4544C53.206 43.4022 53.1996 43.3546 53.1984 43.3123C53.1967 43.2699 53.206 43.2212 53.2265 43.1655C53.2464 43.1104 53.2628 43.0681 53.2757 43.0379C53.2886 43.0078 53.3061 42.9707 53.329 42.9254C53.3378 42.9086 53.3302 42.8987 53.3073 42.8958C53.2962 42.8958 53.2804 42.9016 53.2599 42.9127C53.103 42.9973 52.9343 43.0356 52.754 43.0275C52.6738 43.0304 52.5953 43.0147 52.5181 42.9805C52.4894 42.9892 52.4607 42.9863 52.4326 42.9718C52.3869 42.9492 52.367 42.9127 52.3728 42.8616C52.3301 42.8106 52.3002 42.7526 52.2827 42.6876C52.2481 42.5716 52.2511 42.4568 52.2915 42.3437C52.3313 42.2306 52.4015 42.1372 52.5017 42.0636C52.6217 41.9928 52.716 41.9899 52.7845 42.0549C52.8787 42.1425 52.8471 42.3623 52.6902 42.7131C52.6843 42.7271 52.6884 42.7462 52.7031 42.7706C52.7171 42.7949 52.7347 42.8065 52.7546 42.8065C52.9203 42.8065 53.076 42.7653 53.2218 42.6836C53.2646 42.658 53.2991 42.6407 53.3249 42.6308C53.3506 42.6209 53.3846 42.6169 53.4279 42.618C53.4707 42.6198 53.5111 42.6343 53.548 42.6627C53.5848 42.6911 53.6053 42.7276 53.6077 42.7729C53.6106 42.8181 53.6053 42.857 53.5925 42.8895C53.5796 42.9219 53.5591 42.9666 53.5304 43.0234C53.459 43.1533 53.4238 43.2577 53.4256 43.3355C53.4268 43.4132 53.4748 43.4793 53.569 43.5327C53.6258 43.5669 53.7189 43.5866 53.8477 43.5918C53.9766 43.5976 54.1276 43.586 54.3021 43.5576C54.4766 43.5292 54.6563 43.4868 54.8419 43.43C55.0275 43.3732 55.2161 43.292 55.4075 43.1858C55.599 43.0797 55.7647 42.9585 55.9046 42.8228C55.9275 42.803 55.9544 42.7932 55.986 42.7932L55.9866 42.7943ZM52.4935 42.5948C52.545 42.4875 52.5848 42.3756 52.6135 42.2596C52.5075 42.3501 52.4677 42.462 52.4935 42.5948Z" fill="#805C3C"/>
</svg>
